<mxfile host="app.diagrams.net" modified="2023-05-07T22:41:02.325Z" agent="Mozilla/5.0 (Windows NT 10.0; Win64; x64) AppleWebKit/537.36 (KHTML, like Gecko) Chrome/112.0.0.0 Safari/537.36" etag="V5ioEGTC82b9-9CpvdUi" version="21.2.9" type="device">
  <diagram name="Page-1" id="XcJx_lT4fDkd7Cc91rXP">
    <mxGraphModel dx="1010" dy="485" grid="1" gridSize="10" guides="1" tooltips="1" connect="1" arrows="1" fold="1" page="1" pageScale="1" pageWidth="827" pageHeight="1169" math="0" shadow="0">
      <root>
        <mxCell id="0" />
        <mxCell id="1" parent="0" />
        <mxCell id="dhVAYogz4fCFv6d9xKXi-1" value="" style="shape=umlLifeline;perimeter=lifelinePerimeter;whiteSpace=wrap;html=1;container=1;dropTarget=0;collapsible=0;recursiveResize=0;outlineConnect=0;portConstraint=eastwest;newEdgeStyle={&quot;edgeStyle&quot;:&quot;elbowEdgeStyle&quot;,&quot;elbow&quot;:&quot;vertical&quot;,&quot;curved&quot;:0,&quot;rounded&quot;:0};participant=umlActor;" vertex="1" parent="1">
          <mxGeometry x="90" y="40" width="20" height="360" as="geometry" />
        </mxCell>
        <mxCell id="dhVAYogz4fCFv6d9xKXi-8" value="Connection" style="rounded=0;whiteSpace=wrap;html=1;" vertex="1" parent="1">
          <mxGeometry x="40" y="10" width="120" height="20" as="geometry" />
        </mxCell>
        <mxCell id="dhVAYogz4fCFv6d9xKXi-9" value="Application" style="shape=umlLifeline;perimeter=lifelinePerimeter;whiteSpace=wrap;html=1;container=1;dropTarget=0;collapsible=0;recursiveResize=0;outlineConnect=0;portConstraint=eastwest;newEdgeStyle={&quot;edgeStyle&quot;:&quot;elbowEdgeStyle&quot;,&quot;elbow&quot;:&quot;vertical&quot;,&quot;curved&quot;:0,&quot;rounded&quot;:0};" vertex="1" parent="1">
          <mxGeometry x="240" y="40" width="100" height="360" as="geometry" />
        </mxCell>
        <mxCell id="dhVAYogz4fCFv6d9xKXi-14" value="" style="html=1;points=[];perimeter=orthogonalPerimeter;outlineConnect=0;targetShapes=umlLifeline;portConstraint=eastwest;newEdgeStyle={&quot;edgeStyle&quot;:&quot;elbowEdgeStyle&quot;,&quot;elbow&quot;:&quot;vertical&quot;,&quot;curved&quot;:0,&quot;rounded&quot;:0};" vertex="1" parent="dhVAYogz4fCFv6d9xKXi-9">
          <mxGeometry x="45" y="80" width="10" height="90" as="geometry" />
        </mxCell>
        <mxCell id="dhVAYogz4fCFv6d9xKXi-19" value="" style="html=1;points=[];perimeter=orthogonalPerimeter;outlineConnect=0;targetShapes=umlLifeline;portConstraint=eastwest;newEdgeStyle={&quot;edgeStyle&quot;:&quot;elbowEdgeStyle&quot;,&quot;elbow&quot;:&quot;vertical&quot;,&quot;curved&quot;:0,&quot;rounded&quot;:0};" vertex="1" parent="dhVAYogz4fCFv6d9xKXi-9">
          <mxGeometry x="45" y="190" width="10" height="120" as="geometry" />
        </mxCell>
        <mxCell id="dhVAYogz4fCFv6d9xKXi-10" value=":Table_User" style="shape=umlLifeline;perimeter=lifelinePerimeter;whiteSpace=wrap;html=1;container=1;dropTarget=0;collapsible=0;recursiveResize=0;outlineConnect=0;portConstraint=eastwest;newEdgeStyle={&quot;edgeStyle&quot;:&quot;elbowEdgeStyle&quot;,&quot;elbow&quot;:&quot;vertical&quot;,&quot;curved&quot;:0,&quot;rounded&quot;:0};" vertex="1" parent="1">
          <mxGeometry x="440" y="40" width="100" height="360" as="geometry" />
        </mxCell>
        <mxCell id="dhVAYogz4fCFv6d9xKXi-199" value="" style="html=1;points=[];perimeter=orthogonalPerimeter;outlineConnect=0;targetShapes=umlLifeline;portConstraint=eastwest;newEdgeStyle={&quot;edgeStyle&quot;:&quot;elbowEdgeStyle&quot;,&quot;elbow&quot;:&quot;vertical&quot;,&quot;curved&quot;:0,&quot;rounded&quot;:0};" vertex="1" parent="dhVAYogz4fCFv6d9xKXi-10">
          <mxGeometry x="45" y="190" width="10" height="40" as="geometry" />
        </mxCell>
        <mxCell id="dhVAYogz4fCFv6d9xKXi-11" value="Demande pour ce connecter&lt;br&gt;ou créer un compte" style="html=1;verticalAlign=bottom;endArrow=block;edgeStyle=elbowEdgeStyle;elbow=vertical;curved=0;rounded=0;" edge="1" parent="1" target="dhVAYogz4fCFv6d9xKXi-9">
          <mxGeometry width="80" relative="1" as="geometry">
            <mxPoint x="100" y="120" as="sourcePoint" />
            <mxPoint x="180" y="120" as="targetPoint" />
          </mxGeometry>
        </mxCell>
        <mxCell id="dhVAYogz4fCFv6d9xKXi-12" value="Si pour ce connecter" style="shape=umlFrame;whiteSpace=wrap;html=1;pointerEvents=0;" vertex="1" parent="1">
          <mxGeometry x="30" y="130" width="310" height="40" as="geometry" />
        </mxCell>
        <mxCell id="dhVAYogz4fCFv6d9xKXi-13" value="Sinon" style="shape=umlFrame;whiteSpace=wrap;html=1;pointerEvents=0;" vertex="1" parent="1">
          <mxGeometry x="30" y="170" width="310" height="40" as="geometry" />
        </mxCell>
        <mxCell id="dhVAYogz4fCFv6d9xKXi-15" value="Ouvre la page de connection" style="html=1;verticalAlign=bottom;endArrow=open;dashed=1;endSize=8;edgeStyle=elbowEdgeStyle;elbow=vertical;curved=0;rounded=0;" edge="1" parent="1" target="dhVAYogz4fCFv6d9xKXi-1">
          <mxGeometry relative="1" as="geometry">
            <mxPoint x="290" y="150" as="sourcePoint" />
            <mxPoint x="210" y="150" as="targetPoint" />
          </mxGeometry>
        </mxCell>
        <mxCell id="dhVAYogz4fCFv6d9xKXi-16" value="Ouvre la page de création de compte" style="html=1;verticalAlign=bottom;endArrow=open;dashed=1;endSize=8;edgeStyle=elbowEdgeStyle;elbow=vertical;curved=0;rounded=0;" edge="1" parent="1" target="dhVAYogz4fCFv6d9xKXi-1">
          <mxGeometry relative="1" as="geometry">
            <mxPoint x="290" y="190" as="sourcePoint" />
            <mxPoint x="210" y="190" as="targetPoint" />
          </mxGeometry>
        </mxCell>
        <mxCell id="dhVAYogz4fCFv6d9xKXi-17" value="Entre les valeur correspondant" style="html=1;verticalAlign=bottom;endArrow=block;edgeStyle=elbowEdgeStyle;elbow=vertical;curved=0;rounded=0;" edge="1" parent="1" target="dhVAYogz4fCFv6d9xKXi-9">
          <mxGeometry width="80" relative="1" as="geometry">
            <mxPoint x="100" y="230" as="sourcePoint" />
            <mxPoint x="180" y="230" as="targetPoint" />
          </mxGeometry>
        </mxCell>
        <mxCell id="dhVAYogz4fCFv6d9xKXi-20" value="Regarde si les valeur correspond&lt;br&gt;Avec la BD" style="html=1;verticalAlign=bottom;endArrow=block;edgeStyle=elbowEdgeStyle;elbow=vertical;curved=0;rounded=0;" edge="1" parent="1" target="dhVAYogz4fCFv6d9xKXi-10">
          <mxGeometry width="80" relative="1" as="geometry">
            <mxPoint x="290" y="240" as="sourcePoint" />
            <mxPoint x="370" y="240" as="targetPoint" />
          </mxGeometry>
        </mxCell>
        <mxCell id="dhVAYogz4fCFv6d9xKXi-21" value="return si les valeur son bonne" style="html=1;verticalAlign=bottom;endArrow=open;dashed=1;endSize=8;edgeStyle=elbowEdgeStyle;elbow=vertical;curved=0;rounded=0;" edge="1" parent="1" target="dhVAYogz4fCFv6d9xKXi-19">
          <mxGeometry relative="1" as="geometry">
            <mxPoint x="490" y="260" as="sourcePoint" />
            <mxPoint x="410" y="260" as="targetPoint" />
          </mxGeometry>
        </mxCell>
        <mxCell id="dhVAYogz4fCFv6d9xKXi-22" value="Si valeur bonne" style="shape=umlFrame;whiteSpace=wrap;html=1;pointerEvents=0;" vertex="1" parent="1">
          <mxGeometry x="30" y="270" width="300" height="40" as="geometry" />
        </mxCell>
        <mxCell id="dhVAYogz4fCFv6d9xKXi-23" value="Sinon" style="shape=umlFrame;whiteSpace=wrap;html=1;pointerEvents=0;" vertex="1" parent="1">
          <mxGeometry x="30" y="310" width="300" height="40" as="geometry" />
        </mxCell>
        <mxCell id="dhVAYogz4fCFv6d9xKXi-24" value="Retourne au client que les valeur&lt;br&gt;entrer sont bonne" style="html=1;verticalAlign=bottom;endArrow=open;dashed=1;endSize=8;edgeStyle=elbowEdgeStyle;elbow=vertical;curved=0;rounded=0;" edge="1" parent="1" target="dhVAYogz4fCFv6d9xKXi-1">
          <mxGeometry relative="1" as="geometry">
            <mxPoint x="290" y="290" as="sourcePoint" />
            <mxPoint x="210" y="290" as="targetPoint" />
          </mxGeometry>
        </mxCell>
        <mxCell id="dhVAYogz4fCFv6d9xKXi-25" value="Dit au client de rentrer les valeur&lt;br&gt;car elle ne correspondais pas" style="html=1;verticalAlign=bottom;endArrow=open;dashed=1;endSize=8;edgeStyle=elbowEdgeStyle;elbow=vertical;curved=0;rounded=0;" edge="1" parent="1" target="dhVAYogz4fCFv6d9xKXi-1">
          <mxGeometry relative="1" as="geometry">
            <mxPoint x="290" y="330" as="sourcePoint" />
            <mxPoint x="210" y="330" as="targetPoint" />
          </mxGeometry>
        </mxCell>
        <mxCell id="dhVAYogz4fCFv6d9xKXi-26" value="Connection à l&#39;application" style="html=1;verticalAlign=bottom;endArrow=block;edgeStyle=elbowEdgeStyle;elbow=vertical;curved=0;rounded=0;" edge="1" parent="1" target="dhVAYogz4fCFv6d9xKXi-9">
          <mxGeometry width="80" relative="1" as="geometry">
            <mxPoint x="100" y="390" as="sourcePoint" />
            <mxPoint x="180" y="390" as="targetPoint" />
            <Array as="points">
              <mxPoint x="160" y="380" />
            </Array>
          </mxGeometry>
        </mxCell>
        <mxCell id="dhVAYogz4fCFv6d9xKXi-27" value="End" style="ellipse;whiteSpace=wrap;html=1;aspect=fixed;" vertex="1" parent="1">
          <mxGeometry x="80" y="400" width="40" height="40" as="geometry" />
        </mxCell>
        <mxCell id="dhVAYogz4fCFv6d9xKXi-28" value="End" style="ellipse;whiteSpace=wrap;html=1;aspect=fixed;" vertex="1" parent="1">
          <mxGeometry x="270" y="400" width="40" height="40" as="geometry" />
        </mxCell>
        <mxCell id="dhVAYogz4fCFv6d9xKXi-29" value="End" style="ellipse;whiteSpace=wrap;html=1;aspect=fixed;" vertex="1" parent="1">
          <mxGeometry x="470" y="400" width="40" height="40" as="geometry" />
        </mxCell>
        <mxCell id="dhVAYogz4fCFv6d9xKXi-30" value="" style="endArrow=none;html=1;rounded=0;" edge="1" parent="1">
          <mxGeometry width="50" height="50" relative="1" as="geometry">
            <mxPoint y="480" as="sourcePoint" />
            <mxPoint x="820" y="480" as="targetPoint" />
          </mxGeometry>
        </mxCell>
        <mxCell id="dhVAYogz4fCFv6d9xKXi-53" value="" style="shape=umlLifeline;perimeter=lifelinePerimeter;whiteSpace=wrap;html=1;container=1;dropTarget=0;collapsible=0;recursiveResize=0;outlineConnect=0;portConstraint=eastwest;newEdgeStyle={&quot;edgeStyle&quot;:&quot;elbowEdgeStyle&quot;,&quot;elbow&quot;:&quot;vertical&quot;,&quot;curved&quot;:0,&quot;rounded&quot;:0};participant=umlActor;" vertex="1" parent="1">
          <mxGeometry x="100" y="520" width="20" height="360" as="geometry" />
        </mxCell>
        <mxCell id="dhVAYogz4fCFv6d9xKXi-54" value="Ajouter article" style="rounded=0;whiteSpace=wrap;html=1;" vertex="1" parent="1">
          <mxGeometry x="50" y="490" width="120" height="20" as="geometry" />
        </mxCell>
        <mxCell id="dhVAYogz4fCFv6d9xKXi-55" value="Application" style="shape=umlLifeline;perimeter=lifelinePerimeter;whiteSpace=wrap;html=1;container=1;dropTarget=0;collapsible=0;recursiveResize=0;outlineConnect=0;portConstraint=eastwest;newEdgeStyle={&quot;edgeStyle&quot;:&quot;elbowEdgeStyle&quot;,&quot;elbow&quot;:&quot;vertical&quot;,&quot;curved&quot;:0,&quot;rounded&quot;:0};" vertex="1" parent="1">
          <mxGeometry x="250" y="520" width="100" height="360" as="geometry" />
        </mxCell>
        <mxCell id="dhVAYogz4fCFv6d9xKXi-79" value="" style="html=1;points=[];perimeter=orthogonalPerimeter;outlineConnect=0;targetShapes=umlLifeline;portConstraint=eastwest;newEdgeStyle={&quot;edgeStyle&quot;:&quot;elbowEdgeStyle&quot;,&quot;elbow&quot;:&quot;vertical&quot;,&quot;curved&quot;:0,&quot;rounded&quot;:0};" vertex="1" parent="dhVAYogz4fCFv6d9xKXi-55">
          <mxGeometry x="45" y="160" width="10" height="150" as="geometry" />
        </mxCell>
        <mxCell id="dhVAYogz4fCFv6d9xKXi-58" value=":Table_Article" style="shape=umlLifeline;perimeter=lifelinePerimeter;whiteSpace=wrap;html=1;container=1;dropTarget=0;collapsible=0;recursiveResize=0;outlineConnect=0;portConstraint=eastwest;newEdgeStyle={&quot;edgeStyle&quot;:&quot;elbowEdgeStyle&quot;,&quot;elbow&quot;:&quot;vertical&quot;,&quot;curved&quot;:0,&quot;rounded&quot;:0};" vertex="1" parent="1">
          <mxGeometry x="450" y="520" width="100" height="360" as="geometry" />
        </mxCell>
        <mxCell id="dhVAYogz4fCFv6d9xKXi-198" value="" style="html=1;points=[];perimeter=orthogonalPerimeter;outlineConnect=0;targetShapes=umlLifeline;portConstraint=eastwest;newEdgeStyle={&quot;edgeStyle&quot;:&quot;elbowEdgeStyle&quot;,&quot;elbow&quot;:&quot;vertical&quot;,&quot;curved&quot;:0,&quot;rounded&quot;:0};" vertex="1" parent="dhVAYogz4fCFv6d9xKXi-58">
          <mxGeometry x="45" y="160" width="10" height="50" as="geometry" />
        </mxCell>
        <mxCell id="dhVAYogz4fCFv6d9xKXi-72" value="End" style="ellipse;whiteSpace=wrap;html=1;aspect=fixed;" vertex="1" parent="1">
          <mxGeometry x="90" y="880" width="40" height="40" as="geometry" />
        </mxCell>
        <mxCell id="dhVAYogz4fCFv6d9xKXi-73" value="End" style="ellipse;whiteSpace=wrap;html=1;aspect=fixed;" vertex="1" parent="1">
          <mxGeometry x="280" y="880" width="40" height="40" as="geometry" />
        </mxCell>
        <mxCell id="dhVAYogz4fCFv6d9xKXi-74" value="End" style="ellipse;whiteSpace=wrap;html=1;aspect=fixed;" vertex="1" parent="1">
          <mxGeometry x="480" y="880" width="40" height="40" as="geometry" />
        </mxCell>
        <mxCell id="dhVAYogz4fCFv6d9xKXi-76" value="Connection" style="html=1;verticalAlign=bottom;endArrow=block;edgeStyle=elbowEdgeStyle;elbow=vertical;curved=0;rounded=0;" edge="1" parent="1" target="dhVAYogz4fCFv6d9xKXi-55">
          <mxGeometry width="80" relative="1" as="geometry">
            <mxPoint x="110" y="600" as="sourcePoint" />
            <mxPoint x="190" y="600" as="targetPoint" />
          </mxGeometry>
        </mxCell>
        <mxCell id="dhVAYogz4fCFv6d9xKXi-77" value="Entrer valeur correspondant&lt;br&gt;Nouveau article" style="html=1;verticalAlign=bottom;endArrow=block;edgeStyle=elbowEdgeStyle;elbow=vertical;curved=0;rounded=0;" edge="1" parent="1" target="dhVAYogz4fCFv6d9xKXi-55">
          <mxGeometry width="80" relative="1" as="geometry">
            <mxPoint x="110" y="640" as="sourcePoint" />
            <mxPoint x="190" y="640" as="targetPoint" />
          </mxGeometry>
        </mxCell>
        <mxCell id="dhVAYogz4fCFv6d9xKXi-78" value="Appuyer sur ajouter" style="html=1;verticalAlign=bottom;endArrow=block;edgeStyle=elbowEdgeStyle;elbow=vertical;curved=0;rounded=0;" edge="1" parent="1" target="dhVAYogz4fCFv6d9xKXi-55">
          <mxGeometry width="80" relative="1" as="geometry">
            <mxPoint x="110" y="680" as="sourcePoint" />
            <mxPoint x="190" y="680" as="targetPoint" />
          </mxGeometry>
        </mxCell>
        <mxCell id="dhVAYogz4fCFv6d9xKXi-80" value="Regarde si les valeurs entrer&lt;br&gt;sont en accord avec eux dans la&lt;br&gt;BD" style="html=1;verticalAlign=bottom;endArrow=block;edgeStyle=elbowEdgeStyle;elbow=vertical;curved=0;rounded=0;" edge="1" parent="1" target="dhVAYogz4fCFv6d9xKXi-58">
          <mxGeometry width="80" relative="1" as="geometry">
            <mxPoint x="300" y="690" as="sourcePoint" />
            <mxPoint x="380" y="690" as="targetPoint" />
          </mxGeometry>
        </mxCell>
        <mxCell id="dhVAYogz4fCFv6d9xKXi-82" value="Retourne si les entrer correspond" style="html=1;verticalAlign=bottom;endArrow=open;dashed=1;endSize=8;edgeStyle=elbowEdgeStyle;elbow=vertical;curved=0;rounded=0;" edge="1" parent="1" target="dhVAYogz4fCFv6d9xKXi-55">
          <mxGeometry relative="1" as="geometry">
            <mxPoint x="500" y="720" as="sourcePoint" />
            <mxPoint x="420" y="720" as="targetPoint" />
          </mxGeometry>
        </mxCell>
        <mxCell id="dhVAYogz4fCFv6d9xKXi-83" value="Si article correspond" style="shape=umlFrame;whiteSpace=wrap;html=1;pointerEvents=0;" vertex="1" parent="1">
          <mxGeometry x="20" y="730" width="540" height="50" as="geometry" />
        </mxCell>
        <mxCell id="dhVAYogz4fCFv6d9xKXi-84" value="Sinon" style="shape=umlFrame;whiteSpace=wrap;html=1;pointerEvents=0;" vertex="1" parent="1">
          <mxGeometry x="20" y="780" width="540" height="50" as="geometry" />
        </mxCell>
        <mxCell id="dhVAYogz4fCFv6d9xKXi-85" value="Ajoute l&#39;article a la BD" style="html=1;verticalAlign=bottom;endArrow=block;edgeStyle=elbowEdgeStyle;elbow=vertical;curved=0;rounded=0;" edge="1" parent="1" target="dhVAYogz4fCFv6d9xKXi-58">
          <mxGeometry width="80" relative="1" as="geometry">
            <mxPoint x="300" y="750" as="sourcePoint" />
            <mxPoint x="380" y="750" as="targetPoint" />
          </mxGeometry>
        </mxCell>
        <mxCell id="dhVAYogz4fCFv6d9xKXi-88" value="Dit au client que les valeurs entrer&lt;br&gt;sont pas boone" style="html=1;verticalAlign=bottom;endArrow=open;dashed=1;endSize=8;edgeStyle=elbowEdgeStyle;elbow=vertical;curved=0;rounded=0;" edge="1" parent="1" target="dhVAYogz4fCFv6d9xKXi-53">
          <mxGeometry relative="1" as="geometry">
            <mxPoint x="300" y="800" as="sourcePoint" />
            <mxPoint x="220" y="800" as="targetPoint" />
          </mxGeometry>
        </mxCell>
        <mxCell id="dhVAYogz4fCFv6d9xKXi-89" value="" style="endArrow=none;html=1;rounded=0;" edge="1" parent="1">
          <mxGeometry width="50" height="50" relative="1" as="geometry">
            <mxPoint y="960" as="sourcePoint" />
            <mxPoint x="820" y="960" as="targetPoint" />
          </mxGeometry>
        </mxCell>
        <mxCell id="dhVAYogz4fCFv6d9xKXi-90" value="" style="shape=umlLifeline;perimeter=lifelinePerimeter;whiteSpace=wrap;html=1;container=1;dropTarget=0;collapsible=0;recursiveResize=0;outlineConnect=0;portConstraint=eastwest;newEdgeStyle={&quot;edgeStyle&quot;:&quot;elbowEdgeStyle&quot;,&quot;elbow&quot;:&quot;vertical&quot;,&quot;curved&quot;:0,&quot;rounded&quot;:0};participant=umlActor;" vertex="1" parent="1">
          <mxGeometry x="90" y="1000" width="20" height="190" as="geometry" />
        </mxCell>
        <mxCell id="dhVAYogz4fCFv6d9xKXi-91" value="Sélectionner article&amp;nbsp;" style="rounded=0;whiteSpace=wrap;html=1;" vertex="1" parent="1">
          <mxGeometry x="35" y="970" width="120" height="20" as="geometry" />
        </mxCell>
        <mxCell id="dhVAYogz4fCFv6d9xKXi-92" value="Application" style="shape=umlLifeline;perimeter=lifelinePerimeter;whiteSpace=wrap;html=1;container=1;dropTarget=0;collapsible=0;recursiveResize=0;outlineConnect=0;portConstraint=eastwest;newEdgeStyle={&quot;edgeStyle&quot;:&quot;elbowEdgeStyle&quot;,&quot;elbow&quot;:&quot;vertical&quot;,&quot;curved&quot;:0,&quot;rounded&quot;:0};" vertex="1" parent="1">
          <mxGeometry x="235" y="1000" width="100" height="200" as="geometry" />
        </mxCell>
        <mxCell id="dhVAYogz4fCFv6d9xKXi-200" value="" style="html=1;points=[];perimeter=orthogonalPerimeter;outlineConnect=0;targetShapes=umlLifeline;portConstraint=eastwest;newEdgeStyle={&quot;edgeStyle&quot;:&quot;elbowEdgeStyle&quot;,&quot;elbow&quot;:&quot;vertical&quot;,&quot;curved&quot;:0,&quot;rounded&quot;:0};" vertex="1" parent="dhVAYogz4fCFv6d9xKXi-92">
          <mxGeometry x="45" y="110" width="10" height="60" as="geometry" />
        </mxCell>
        <mxCell id="dhVAYogz4fCFv6d9xKXi-95" value="End" style="ellipse;whiteSpace=wrap;html=1;aspect=fixed;" vertex="1" parent="1">
          <mxGeometry x="80" y="1180" width="40" height="40" as="geometry" />
        </mxCell>
        <mxCell id="dhVAYogz4fCFv6d9xKXi-96" value="End" style="ellipse;whiteSpace=wrap;html=1;aspect=fixed;" vertex="1" parent="1">
          <mxGeometry x="265" y="1180" width="40" height="40" as="geometry" />
        </mxCell>
        <mxCell id="dhVAYogz4fCFv6d9xKXi-108" value="Connection" style="html=1;verticalAlign=bottom;endArrow=block;edgeStyle=elbowEdgeStyle;elbow=vertical;curved=0;rounded=0;" edge="1" parent="1" target="dhVAYogz4fCFv6d9xKXi-92">
          <mxGeometry width="80" relative="1" as="geometry">
            <mxPoint x="100" y="1080" as="sourcePoint" />
            <mxPoint x="180" y="1080" as="targetPoint" />
          </mxGeometry>
        </mxCell>
        <mxCell id="dhVAYogz4fCFv6d9xKXi-109" value="Appui sur l&#39;article à sélectionner" style="html=1;verticalAlign=bottom;endArrow=block;edgeStyle=elbowEdgeStyle;elbow=vertical;curved=0;rounded=0;" edge="1" parent="1" target="dhVAYogz4fCFv6d9xKXi-92">
          <mxGeometry width="80" relative="1" as="geometry">
            <mxPoint x="100" y="1120" as="sourcePoint" />
            <mxPoint x="180" y="1120" as="targetPoint" />
          </mxGeometry>
        </mxCell>
        <mxCell id="dhVAYogz4fCFv6d9xKXi-110" value="Affiche l&#39;article sélectionner" style="html=1;verticalAlign=bottom;endArrow=open;dashed=1;endSize=8;edgeStyle=elbowEdgeStyle;elbow=vertical;curved=0;rounded=0;" edge="1" parent="1" source="dhVAYogz4fCFv6d9xKXi-92" target="dhVAYogz4fCFv6d9xKXi-90">
          <mxGeometry relative="1" as="geometry">
            <mxPoint x="280" y="1160" as="sourcePoint" />
            <mxPoint x="200" y="1160" as="targetPoint" />
            <Array as="points">
              <mxPoint x="200" y="1160" />
            </Array>
          </mxGeometry>
        </mxCell>
        <mxCell id="dhVAYogz4fCFv6d9xKXi-111" value="" style="endArrow=none;html=1;rounded=0;" edge="1" parent="1">
          <mxGeometry width="50" height="50" relative="1" as="geometry">
            <mxPoint y="1240" as="sourcePoint" />
            <mxPoint x="823.2" y="1240" as="targetPoint" />
          </mxGeometry>
        </mxCell>
        <mxCell id="dhVAYogz4fCFv6d9xKXi-129" value="" style="shape=umlLifeline;perimeter=lifelinePerimeter;whiteSpace=wrap;html=1;container=1;dropTarget=0;collapsible=0;recursiveResize=0;outlineConnect=0;portConstraint=eastwest;newEdgeStyle={&quot;edgeStyle&quot;:&quot;elbowEdgeStyle&quot;,&quot;elbow&quot;:&quot;vertical&quot;,&quot;curved&quot;:0,&quot;rounded&quot;:0};participant=umlActor;" vertex="1" parent="1">
          <mxGeometry x="80" y="1290" width="20" height="200" as="geometry" />
        </mxCell>
        <mxCell id="dhVAYogz4fCFv6d9xKXi-130" value="Recherche article par nom" style="rounded=0;whiteSpace=wrap;html=1;" vertex="1" parent="1">
          <mxGeometry x="30" y="1250" width="120" height="30" as="geometry" />
        </mxCell>
        <mxCell id="dhVAYogz4fCFv6d9xKXi-131" value="Application" style="shape=umlLifeline;perimeter=lifelinePerimeter;whiteSpace=wrap;html=1;container=1;dropTarget=0;collapsible=0;recursiveResize=0;outlineConnect=0;portConstraint=eastwest;newEdgeStyle={&quot;edgeStyle&quot;:&quot;elbowEdgeStyle&quot;,&quot;elbow&quot;:&quot;vertical&quot;,&quot;curved&quot;:0,&quot;rounded&quot;:0};" vertex="1" parent="1">
          <mxGeometry x="230" y="1290" width="100" height="210" as="geometry" />
        </mxCell>
        <mxCell id="dhVAYogz4fCFv6d9xKXi-148" value="" style="html=1;points=[];perimeter=orthogonalPerimeter;outlineConnect=0;targetShapes=umlLifeline;portConstraint=eastwest;newEdgeStyle={&quot;edgeStyle&quot;:&quot;elbowEdgeStyle&quot;,&quot;elbow&quot;:&quot;vertical&quot;,&quot;curved&quot;:0,&quot;rounded&quot;:0};" vertex="1" parent="dhVAYogz4fCFv6d9xKXi-131">
          <mxGeometry x="45" y="110" width="10" height="80" as="geometry" />
        </mxCell>
        <mxCell id="dhVAYogz4fCFv6d9xKXi-133" value=":Table_Article" style="shape=umlLifeline;perimeter=lifelinePerimeter;whiteSpace=wrap;html=1;container=1;dropTarget=0;collapsible=0;recursiveResize=0;outlineConnect=0;portConstraint=eastwest;newEdgeStyle={&quot;edgeStyle&quot;:&quot;elbowEdgeStyle&quot;,&quot;elbow&quot;:&quot;vertical&quot;,&quot;curved&quot;:0,&quot;rounded&quot;:0};" vertex="1" parent="1">
          <mxGeometry x="430" y="1290" width="100" height="210" as="geometry" />
        </mxCell>
        <mxCell id="dhVAYogz4fCFv6d9xKXi-197" value="" style="html=1;points=[];perimeter=orthogonalPerimeter;outlineConnect=0;targetShapes=umlLifeline;portConstraint=eastwest;newEdgeStyle={&quot;edgeStyle&quot;:&quot;elbowEdgeStyle&quot;,&quot;elbow&quot;:&quot;vertical&quot;,&quot;curved&quot;:0,&quot;rounded&quot;:0};" vertex="1" parent="dhVAYogz4fCFv6d9xKXi-133">
          <mxGeometry x="45" y="110" width="10" height="50" as="geometry" />
        </mxCell>
        <mxCell id="dhVAYogz4fCFv6d9xKXi-134" value="End" style="ellipse;whiteSpace=wrap;html=1;aspect=fixed;" vertex="1" parent="1">
          <mxGeometry x="70" y="1490" width="40" height="40" as="geometry" />
        </mxCell>
        <mxCell id="dhVAYogz4fCFv6d9xKXi-135" value="End" style="ellipse;whiteSpace=wrap;html=1;aspect=fixed;" vertex="1" parent="1">
          <mxGeometry x="260" y="1490" width="40" height="40" as="geometry" />
        </mxCell>
        <mxCell id="dhVAYogz4fCFv6d9xKXi-136" value="End" style="ellipse;whiteSpace=wrap;html=1;aspect=fixed;" vertex="1" parent="1">
          <mxGeometry x="460" y="1500" width="40" height="40" as="geometry" />
        </mxCell>
        <mxCell id="dhVAYogz4fCFv6d9xKXi-146" value="Connection" style="html=1;verticalAlign=bottom;endArrow=block;edgeStyle=elbowEdgeStyle;elbow=vertical;curved=0;rounded=0;" edge="1" parent="1" target="dhVAYogz4fCFv6d9xKXi-131">
          <mxGeometry width="80" relative="1" as="geometry">
            <mxPoint x="90" y="1360" as="sourcePoint" />
            <mxPoint x="170" y="1360" as="targetPoint" />
          </mxGeometry>
        </mxCell>
        <mxCell id="dhVAYogz4fCFv6d9xKXi-147" value="Entrer le nom de l&#39;article a afficher" style="html=1;verticalAlign=bottom;endArrow=block;edgeStyle=elbowEdgeStyle;elbow=vertical;curved=0;rounded=0;" edge="1" parent="1" target="dhVAYogz4fCFv6d9xKXi-131">
          <mxGeometry x="-0.0005" width="80" relative="1" as="geometry">
            <mxPoint x="90" y="1400" as="sourcePoint" />
            <mxPoint x="170" y="1400" as="targetPoint" />
            <mxPoint as="offset" />
          </mxGeometry>
        </mxCell>
        <mxCell id="dhVAYogz4fCFv6d9xKXi-149" value="Regarde tout les nom qui&amp;nbsp;&lt;br&gt;correspond au nom dans&amp;nbsp;&lt;br&gt;la bar de recherche" style="html=1;verticalAlign=bottom;endArrow=block;edgeStyle=elbowEdgeStyle;elbow=vertical;curved=0;rounded=0;" edge="1" parent="1" target="dhVAYogz4fCFv6d9xKXi-133">
          <mxGeometry width="80" relative="1" as="geometry">
            <mxPoint x="280" y="1410" as="sourcePoint" />
            <mxPoint x="360" y="1410" as="targetPoint" />
          </mxGeometry>
        </mxCell>
        <mxCell id="dhVAYogz4fCFv6d9xKXi-150" value="return tout les articles qui correspond" style="html=1;verticalAlign=bottom;endArrow=open;dashed=1;endSize=8;edgeStyle=elbowEdgeStyle;elbow=vertical;curved=0;rounded=0;" edge="1" parent="1" target="dhVAYogz4fCFv6d9xKXi-131">
          <mxGeometry relative="1" as="geometry">
            <mxPoint x="480" y="1440" as="sourcePoint" />
            <mxPoint x="400" y="1440" as="targetPoint" />
          </mxGeometry>
        </mxCell>
        <mxCell id="dhVAYogz4fCFv6d9xKXi-151" value="affiche les articles au client" style="html=1;verticalAlign=bottom;endArrow=open;dashed=1;endSize=8;edgeStyle=elbowEdgeStyle;elbow=vertical;curved=0;rounded=0;" edge="1" parent="1" target="dhVAYogz4fCFv6d9xKXi-129">
          <mxGeometry relative="1" as="geometry">
            <mxPoint x="280" y="1460" as="sourcePoint" />
            <mxPoint x="200" y="1460" as="targetPoint" />
          </mxGeometry>
        </mxCell>
        <mxCell id="dhVAYogz4fCFv6d9xKXi-152" value="" style="endArrow=none;html=1;rounded=0;" edge="1" parent="1">
          <mxGeometry width="50" height="50" relative="1" as="geometry">
            <mxPoint y="1560" as="sourcePoint" />
            <mxPoint x="820" y="1560" as="targetPoint" />
          </mxGeometry>
        </mxCell>
        <mxCell id="dhVAYogz4fCFv6d9xKXi-153" value="" style="shape=umlLifeline;perimeter=lifelinePerimeter;whiteSpace=wrap;html=1;container=1;dropTarget=0;collapsible=0;recursiveResize=0;outlineConnect=0;portConstraint=eastwest;newEdgeStyle={&quot;edgeStyle&quot;:&quot;elbowEdgeStyle&quot;,&quot;elbow&quot;:&quot;vertical&quot;,&quot;curved&quot;:0,&quot;rounded&quot;:0};participant=umlActor;" vertex="1" parent="1">
          <mxGeometry x="80" y="1610" width="20" height="210" as="geometry" />
        </mxCell>
        <mxCell id="dhVAYogz4fCFv6d9xKXi-154" value="Trier article par date" style="rounded=0;whiteSpace=wrap;html=1;" vertex="1" parent="1">
          <mxGeometry x="30" y="1570" width="120" height="30" as="geometry" />
        </mxCell>
        <mxCell id="dhVAYogz4fCFv6d9xKXi-155" value="Application" style="shape=umlLifeline;perimeter=lifelinePerimeter;whiteSpace=wrap;html=1;container=1;dropTarget=0;collapsible=0;recursiveResize=0;outlineConnect=0;portConstraint=eastwest;newEdgeStyle={&quot;edgeStyle&quot;:&quot;elbowEdgeStyle&quot;,&quot;elbow&quot;:&quot;vertical&quot;,&quot;curved&quot;:0,&quot;rounded&quot;:0};" vertex="1" parent="1">
          <mxGeometry x="230" y="1610" width="100" height="210" as="geometry" />
        </mxCell>
        <mxCell id="dhVAYogz4fCFv6d9xKXi-169" value="" style="html=1;points=[];perimeter=orthogonalPerimeter;outlineConnect=0;targetShapes=umlLifeline;portConstraint=eastwest;newEdgeStyle={&quot;edgeStyle&quot;:&quot;elbowEdgeStyle&quot;,&quot;elbow&quot;:&quot;vertical&quot;,&quot;curved&quot;:0,&quot;rounded&quot;:0};" vertex="1" parent="dhVAYogz4fCFv6d9xKXi-155">
          <mxGeometry x="45" y="104" width="10" height="80" as="geometry" />
        </mxCell>
        <mxCell id="dhVAYogz4fCFv6d9xKXi-157" value=":Table_Article" style="shape=umlLifeline;perimeter=lifelinePerimeter;whiteSpace=wrap;html=1;container=1;dropTarget=0;collapsible=0;recursiveResize=0;outlineConnect=0;portConstraint=eastwest;newEdgeStyle={&quot;edgeStyle&quot;:&quot;elbowEdgeStyle&quot;,&quot;elbow&quot;:&quot;vertical&quot;,&quot;curved&quot;:0,&quot;rounded&quot;:0};" vertex="1" parent="1">
          <mxGeometry x="430" y="1610" width="100" height="210" as="geometry" />
        </mxCell>
        <mxCell id="dhVAYogz4fCFv6d9xKXi-196" value="" style="html=1;points=[];perimeter=orthogonalPerimeter;outlineConnect=0;targetShapes=umlLifeline;portConstraint=eastwest;newEdgeStyle={&quot;edgeStyle&quot;:&quot;elbowEdgeStyle&quot;,&quot;elbow&quot;:&quot;vertical&quot;,&quot;curved&quot;:0,&quot;rounded&quot;:0};" vertex="1" parent="dhVAYogz4fCFv6d9xKXi-157">
          <mxGeometry x="45" y="120" width="10" height="40" as="geometry" />
        </mxCell>
        <mxCell id="dhVAYogz4fCFv6d9xKXi-158" value="End" style="ellipse;whiteSpace=wrap;html=1;aspect=fixed;" vertex="1" parent="1">
          <mxGeometry x="70" y="1820" width="40" height="40" as="geometry" />
        </mxCell>
        <mxCell id="dhVAYogz4fCFv6d9xKXi-159" value="End" style="ellipse;whiteSpace=wrap;html=1;aspect=fixed;" vertex="1" parent="1">
          <mxGeometry x="260" y="1820" width="40" height="40" as="geometry" />
        </mxCell>
        <mxCell id="dhVAYogz4fCFv6d9xKXi-160" value="End" style="ellipse;whiteSpace=wrap;html=1;aspect=fixed;" vertex="1" parent="1">
          <mxGeometry x="460" y="1820" width="40" height="40" as="geometry" />
        </mxCell>
        <mxCell id="dhVAYogz4fCFv6d9xKXi-167" value="Connection" style="html=1;verticalAlign=bottom;endArrow=block;edgeStyle=elbowEdgeStyle;elbow=vertical;curved=0;rounded=0;" edge="1" parent="1" target="dhVAYogz4fCFv6d9xKXi-155">
          <mxGeometry width="80" relative="1" as="geometry">
            <mxPoint x="90" y="1680" as="sourcePoint" />
            <mxPoint x="170" y="1680" as="targetPoint" />
          </mxGeometry>
        </mxCell>
        <mxCell id="dhVAYogz4fCFv6d9xKXi-168" value="Appui pour trier les articles" style="html=1;verticalAlign=bottom;endArrow=block;edgeStyle=elbowEdgeStyle;elbow=vertical;curved=0;rounded=0;" edge="1" parent="1" target="dhVAYogz4fCFv6d9xKXi-155">
          <mxGeometry width="80" relative="1" as="geometry">
            <mxPoint x="90" y="1720" as="sourcePoint" />
            <mxPoint x="170" y="1720" as="targetPoint" />
          </mxGeometry>
        </mxCell>
        <mxCell id="dhVAYogz4fCFv6d9xKXi-170" value="Demande un liste de tout les&amp;nbsp;&lt;br&gt;article trier selon la date" style="html=1;verticalAlign=bottom;endArrow=block;edgeStyle=elbowEdgeStyle;elbow=vertical;curved=0;rounded=0;" edge="1" parent="1" target="dhVAYogz4fCFv6d9xKXi-157">
          <mxGeometry width="80" relative="1" as="geometry">
            <mxPoint x="280" y="1730" as="sourcePoint" />
            <mxPoint x="360" y="1730" as="targetPoint" />
          </mxGeometry>
        </mxCell>
        <mxCell id="dhVAYogz4fCFv6d9xKXi-171" value="return la liste d&#39;article triés" style="html=1;verticalAlign=bottom;endArrow=open;dashed=1;endSize=8;edgeStyle=elbowEdgeStyle;elbow=vertical;curved=0;rounded=0;" edge="1" parent="1" target="dhVAYogz4fCFv6d9xKXi-155">
          <mxGeometry relative="1" as="geometry">
            <mxPoint x="480" y="1760" as="sourcePoint" />
            <mxPoint x="400" y="1760" as="targetPoint" />
          </mxGeometry>
        </mxCell>
        <mxCell id="dhVAYogz4fCFv6d9xKXi-172" value="Affiche la liste d&#39;article au client" style="html=1;verticalAlign=bottom;endArrow=open;dashed=1;endSize=8;edgeStyle=elbowEdgeStyle;elbow=vertical;curved=0;rounded=0;" edge="1" parent="1" target="dhVAYogz4fCFv6d9xKXi-153">
          <mxGeometry relative="1" as="geometry">
            <mxPoint x="280" y="1780" as="sourcePoint" />
            <mxPoint x="200" y="1780" as="targetPoint" />
          </mxGeometry>
        </mxCell>
        <mxCell id="dhVAYogz4fCFv6d9xKXi-173" value="" style="endArrow=none;html=1;rounded=0;" edge="1" parent="1">
          <mxGeometry width="50" height="50" relative="1" as="geometry">
            <mxPoint y="1880" as="sourcePoint" />
            <mxPoint x="820" y="1880" as="targetPoint" />
          </mxGeometry>
        </mxCell>
        <mxCell id="dhVAYogz4fCFv6d9xKXi-175" value="" style="shape=umlLifeline;perimeter=lifelinePerimeter;whiteSpace=wrap;html=1;container=1;dropTarget=0;collapsible=0;recursiveResize=0;outlineConnect=0;portConstraint=eastwest;newEdgeStyle={&quot;edgeStyle&quot;:&quot;elbowEdgeStyle&quot;,&quot;elbow&quot;:&quot;vertical&quot;,&quot;curved&quot;:0,&quot;rounded&quot;:0};participant=umlActor;" vertex="1" parent="1">
          <mxGeometry x="80" y="1930" width="20" height="350" as="geometry" />
        </mxCell>
        <mxCell id="dhVAYogz4fCFv6d9xKXi-176" value="Modifier article" style="rounded=0;whiteSpace=wrap;html=1;" vertex="1" parent="1">
          <mxGeometry x="30" y="1890" width="120" height="30" as="geometry" />
        </mxCell>
        <mxCell id="dhVAYogz4fCFv6d9xKXi-177" value="Application" style="shape=umlLifeline;perimeter=lifelinePerimeter;whiteSpace=wrap;html=1;container=1;dropTarget=0;collapsible=0;recursiveResize=0;outlineConnect=0;portConstraint=eastwest;newEdgeStyle={&quot;edgeStyle&quot;:&quot;elbowEdgeStyle&quot;,&quot;elbow&quot;:&quot;vertical&quot;,&quot;curved&quot;:0,&quot;rounded&quot;:0};" vertex="1" parent="1">
          <mxGeometry x="230" y="1930" width="100" height="350" as="geometry" />
        </mxCell>
        <mxCell id="dhVAYogz4fCFv6d9xKXi-193" value="" style="html=1;points=[];perimeter=orthogonalPerimeter;outlineConnect=0;targetShapes=umlLifeline;portConstraint=eastwest;newEdgeStyle={&quot;edgeStyle&quot;:&quot;elbowEdgeStyle&quot;,&quot;elbow&quot;:&quot;vertical&quot;,&quot;curved&quot;:0,&quot;rounded&quot;:0};" vertex="1" parent="dhVAYogz4fCFv6d9xKXi-177">
          <mxGeometry x="45" y="130" width="10" height="190" as="geometry" />
        </mxCell>
        <mxCell id="dhVAYogz4fCFv6d9xKXi-179" value=":Table_Article" style="shape=umlLifeline;perimeter=lifelinePerimeter;whiteSpace=wrap;html=1;container=1;dropTarget=0;collapsible=0;recursiveResize=0;outlineConnect=0;portConstraint=eastwest;newEdgeStyle={&quot;edgeStyle&quot;:&quot;elbowEdgeStyle&quot;,&quot;elbow&quot;:&quot;vertical&quot;,&quot;curved&quot;:0,&quot;rounded&quot;:0};" vertex="1" parent="1">
          <mxGeometry x="430" y="1930" width="100" height="350" as="geometry" />
        </mxCell>
        <mxCell id="dhVAYogz4fCFv6d9xKXi-201" value="" style="html=1;points=[];perimeter=orthogonalPerimeter;outlineConnect=0;targetShapes=umlLifeline;portConstraint=eastwest;newEdgeStyle={&quot;edgeStyle&quot;:&quot;elbowEdgeStyle&quot;,&quot;elbow&quot;:&quot;vertical&quot;,&quot;curved&quot;:0,&quot;rounded&quot;:0};" vertex="1" parent="dhVAYogz4fCFv6d9xKXi-179">
          <mxGeometry x="45" y="130" width="10" height="50" as="geometry" />
        </mxCell>
        <mxCell id="dhVAYogz4fCFv6d9xKXi-180" value="End" style="ellipse;whiteSpace=wrap;html=1;aspect=fixed;" vertex="1" parent="1">
          <mxGeometry x="70" y="2280" width="40" height="40" as="geometry" />
        </mxCell>
        <mxCell id="dhVAYogz4fCFv6d9xKXi-181" value="End" style="ellipse;whiteSpace=wrap;html=1;aspect=fixed;" vertex="1" parent="1">
          <mxGeometry x="260" y="2280" width="40" height="40" as="geometry" />
        </mxCell>
        <mxCell id="dhVAYogz4fCFv6d9xKXi-182" value="End" style="ellipse;whiteSpace=wrap;html=1;aspect=fixed;" vertex="1" parent="1">
          <mxGeometry x="460" y="2280" width="40" height="40" as="geometry" />
        </mxCell>
        <mxCell id="dhVAYogz4fCFv6d9xKXi-189" value="Connection" style="html=1;verticalAlign=bottom;endArrow=block;edgeStyle=elbowEdgeStyle;elbow=vertical;curved=0;rounded=0;" edge="1" parent="1" target="dhVAYogz4fCFv6d9xKXi-177">
          <mxGeometry width="80" relative="1" as="geometry">
            <mxPoint x="90" y="2000" as="sourcePoint" />
            <mxPoint x="170" y="2000" as="targetPoint" />
          </mxGeometry>
        </mxCell>
        <mxCell id="dhVAYogz4fCFv6d9xKXi-190" value="Sélectionner article" style="html=1;verticalAlign=bottom;endArrow=block;edgeStyle=elbowEdgeStyle;elbow=vertical;curved=0;rounded=0;" edge="1" parent="1" target="dhVAYogz4fCFv6d9xKXi-177">
          <mxGeometry width="80" relative="1" as="geometry">
            <mxPoint x="90" y="2030" as="sourcePoint" />
            <mxPoint x="170" y="2030" as="targetPoint" />
          </mxGeometry>
        </mxCell>
        <mxCell id="dhVAYogz4fCFv6d9xKXi-192" value="Entrer les nouvelles valeur&lt;br&gt;de l&#39;article" style="html=1;verticalAlign=bottom;endArrow=block;edgeStyle=elbowEdgeStyle;elbow=vertical;curved=0;rounded=0;" edge="1" parent="1" target="dhVAYogz4fCFv6d9xKXi-177">
          <mxGeometry width="80" relative="1" as="geometry">
            <mxPoint x="90" y="2060" as="sourcePoint" />
            <mxPoint x="170" y="2060" as="targetPoint" />
          </mxGeometry>
        </mxCell>
        <mxCell id="dhVAYogz4fCFv6d9xKXi-194" value="Regarde si les valeurs correspond&lt;br&gt;avec les articles déjà présent&amp;nbsp;&lt;br&gt;dans la BD" style="html=1;verticalAlign=bottom;endArrow=block;edgeStyle=elbowEdgeStyle;elbow=vertical;curved=0;rounded=0;" edge="1" parent="1" target="dhVAYogz4fCFv6d9xKXi-179">
          <mxGeometry width="80" relative="1" as="geometry">
            <mxPoint x="280" y="2070" as="sourcePoint" />
            <mxPoint x="360" y="2070" as="targetPoint" />
          </mxGeometry>
        </mxCell>
        <mxCell id="dhVAYogz4fCFv6d9xKXi-195" value="return si les valeurs sont bonne" style="html=1;verticalAlign=bottom;endArrow=open;dashed=1;endSize=8;edgeStyle=elbowEdgeStyle;elbow=vertical;curved=0;rounded=0;" edge="1" parent="1" target="dhVAYogz4fCFv6d9xKXi-177">
          <mxGeometry relative="1" as="geometry">
            <mxPoint x="480" y="2100" as="sourcePoint" />
            <mxPoint x="400" y="2100" as="targetPoint" />
          </mxGeometry>
        </mxCell>
        <mxCell id="dhVAYogz4fCFv6d9xKXi-203" value="Si valeur bonne" style="shape=umlFrame;whiteSpace=wrap;html=1;pointerEvents=0;" vertex="1" parent="1">
          <mxGeometry x="10" y="2110" width="540" height="70" as="geometry" />
        </mxCell>
        <mxCell id="dhVAYogz4fCFv6d9xKXi-204" value="Sinon" style="shape=umlFrame;whiteSpace=wrap;html=1;pointerEvents=0;" vertex="1" parent="1">
          <mxGeometry x="10" y="2180" width="540" height="70" as="geometry" />
        </mxCell>
        <mxCell id="dhVAYogz4fCFv6d9xKXi-205" value="Update l&#39;article correspondant&amp;nbsp;" style="html=1;verticalAlign=bottom;endArrow=block;edgeStyle=elbowEdgeStyle;elbow=vertical;curved=0;rounded=0;" edge="1" parent="1" target="dhVAYogz4fCFv6d9xKXi-179">
          <mxGeometry width="80" relative="1" as="geometry">
            <mxPoint x="280" y="2130" as="sourcePoint" />
            <mxPoint x="360" y="2130" as="targetPoint" />
          </mxGeometry>
        </mxCell>
        <mxCell id="dhVAYogz4fCFv6d9xKXi-206" value="Update l&#39;affichage de l&#39;article" style="html=1;verticalAlign=bottom;endArrow=open;dashed=1;endSize=8;edgeStyle=elbowEdgeStyle;elbow=vertical;curved=0;rounded=0;" edge="1" parent="1" target="dhVAYogz4fCFv6d9xKXi-175">
          <mxGeometry relative="1" as="geometry">
            <mxPoint x="280" y="2150" as="sourcePoint" />
            <mxPoint x="200" y="2150" as="targetPoint" />
          </mxGeometry>
        </mxCell>
        <mxCell id="dhVAYogz4fCFv6d9xKXi-207" value="Dit que les valeur entrer sont pas&lt;br&gt;bonne" style="html=1;verticalAlign=bottom;endArrow=open;dashed=1;endSize=8;edgeStyle=elbowEdgeStyle;elbow=vertical;curved=0;rounded=0;" edge="1" parent="1" target="dhVAYogz4fCFv6d9xKXi-175">
          <mxGeometry relative="1" as="geometry">
            <mxPoint x="280" y="2210" as="sourcePoint" />
            <mxPoint x="200" y="2210" as="targetPoint" />
          </mxGeometry>
        </mxCell>
        <mxCell id="dhVAYogz4fCFv6d9xKXi-208" value="" style="shape=umlLifeline;perimeter=lifelinePerimeter;whiteSpace=wrap;html=1;container=1;dropTarget=0;collapsible=0;recursiveResize=0;outlineConnect=0;portConstraint=eastwest;newEdgeStyle={&quot;edgeStyle&quot;:&quot;elbowEdgeStyle&quot;,&quot;elbow&quot;:&quot;vertical&quot;,&quot;curved&quot;:0,&quot;rounded&quot;:0};participant=umlActor;" vertex="1" parent="1">
          <mxGeometry x="80" y="2390" width="20" height="180" as="geometry" />
        </mxCell>
        <mxCell id="dhVAYogz4fCFv6d9xKXi-209" value="Supprimer article" style="rounded=0;whiteSpace=wrap;html=1;" vertex="1" parent="1">
          <mxGeometry x="30" y="2350" width="120" height="30" as="geometry" />
        </mxCell>
        <mxCell id="dhVAYogz4fCFv6d9xKXi-210" value="Application" style="shape=umlLifeline;perimeter=lifelinePerimeter;whiteSpace=wrap;html=1;container=1;dropTarget=0;collapsible=0;recursiveResize=0;outlineConnect=0;portConstraint=eastwest;newEdgeStyle={&quot;edgeStyle&quot;:&quot;elbowEdgeStyle&quot;,&quot;elbow&quot;:&quot;vertical&quot;,&quot;curved&quot;:0,&quot;rounded&quot;:0};" vertex="1" parent="1">
          <mxGeometry x="230" y="2390" width="100" height="190" as="geometry" />
        </mxCell>
        <mxCell id="dhVAYogz4fCFv6d9xKXi-228" value="" style="html=1;points=[];perimeter=orthogonalPerimeter;outlineConnect=0;targetShapes=umlLifeline;portConstraint=eastwest;newEdgeStyle={&quot;edgeStyle&quot;:&quot;elbowEdgeStyle&quot;,&quot;elbow&quot;:&quot;vertical&quot;,&quot;curved&quot;:0,&quot;rounded&quot;:0};" vertex="1" parent="dhVAYogz4fCFv6d9xKXi-210">
          <mxGeometry x="45" y="130" width="10" height="40" as="geometry" />
        </mxCell>
        <mxCell id="dhVAYogz4fCFv6d9xKXi-212" value=":Table_Article" style="shape=umlLifeline;perimeter=lifelinePerimeter;whiteSpace=wrap;html=1;container=1;dropTarget=0;collapsible=0;recursiveResize=0;outlineConnect=0;portConstraint=eastwest;newEdgeStyle={&quot;edgeStyle&quot;:&quot;elbowEdgeStyle&quot;,&quot;elbow&quot;:&quot;vertical&quot;,&quot;curved&quot;:0,&quot;rounded&quot;:0};" vertex="1" parent="1">
          <mxGeometry x="430" y="2390" width="100" height="190" as="geometry" />
        </mxCell>
        <mxCell id="dhVAYogz4fCFv6d9xKXi-214" value="End" style="ellipse;whiteSpace=wrap;html=1;aspect=fixed;" vertex="1" parent="1">
          <mxGeometry x="70" y="2570" width="40" height="40" as="geometry" />
        </mxCell>
        <mxCell id="dhVAYogz4fCFv6d9xKXi-215" value="End" style="ellipse;whiteSpace=wrap;html=1;aspect=fixed;" vertex="1" parent="1">
          <mxGeometry x="260" y="2570" width="40" height="40" as="geometry" />
        </mxCell>
        <mxCell id="dhVAYogz4fCFv6d9xKXi-216" value="End" style="ellipse;whiteSpace=wrap;html=1;aspect=fixed;" vertex="1" parent="1">
          <mxGeometry x="460" y="2570" width="40" height="40" as="geometry" />
        </mxCell>
        <mxCell id="dhVAYogz4fCFv6d9xKXi-225" value="Connection" style="html=1;verticalAlign=bottom;endArrow=block;edgeStyle=elbowEdgeStyle;elbow=vertical;curved=0;rounded=0;" edge="1" parent="1" target="dhVAYogz4fCFv6d9xKXi-210">
          <mxGeometry width="80" relative="1" as="geometry">
            <mxPoint x="90" y="2460" as="sourcePoint" />
            <mxPoint x="170" y="2460" as="targetPoint" />
          </mxGeometry>
        </mxCell>
        <mxCell id="dhVAYogz4fCFv6d9xKXi-226" value="Sélectionner article" style="html=1;verticalAlign=bottom;endArrow=block;edgeStyle=elbowEdgeStyle;elbow=vertical;curved=0;rounded=0;" edge="1" parent="1" target="dhVAYogz4fCFv6d9xKXi-210">
          <mxGeometry width="80" relative="1" as="geometry">
            <mxPoint x="90" y="2490" as="sourcePoint" />
            <mxPoint x="170" y="2490" as="targetPoint" />
          </mxGeometry>
        </mxCell>
        <mxCell id="dhVAYogz4fCFv6d9xKXi-227" value="Appuyer sur supprimer&amp;nbsp;" style="html=1;verticalAlign=bottom;endArrow=block;edgeStyle=elbowEdgeStyle;elbow=vertical;curved=0;rounded=0;" edge="1" parent="1" target="dhVAYogz4fCFv6d9xKXi-210">
          <mxGeometry width="80" relative="1" as="geometry">
            <mxPoint x="90" y="2520" as="sourcePoint" />
            <mxPoint x="170" y="2520" as="targetPoint" />
          </mxGeometry>
        </mxCell>
        <mxCell id="dhVAYogz4fCFv6d9xKXi-229" value="Supprimer l&#39;article de la BD" style="html=1;verticalAlign=bottom;endArrow=block;edgeStyle=elbowEdgeStyle;elbow=vertical;curved=0;rounded=0;" edge="1" parent="1" target="dhVAYogz4fCFv6d9xKXi-212">
          <mxGeometry width="80" relative="1" as="geometry">
            <mxPoint x="280" y="2530" as="sourcePoint" />
            <mxPoint x="360" y="2530" as="targetPoint" />
          </mxGeometry>
        </mxCell>
        <mxCell id="dhVAYogz4fCFv6d9xKXi-230" value="Enleve l&#39;article de l&#39;affichage" style="html=1;verticalAlign=bottom;endArrow=open;dashed=1;endSize=8;edgeStyle=elbowEdgeStyle;elbow=vertical;curved=0;rounded=0;" edge="1" parent="1" target="dhVAYogz4fCFv6d9xKXi-208">
          <mxGeometry relative="1" as="geometry">
            <mxPoint x="280" y="2550" as="sourcePoint" />
            <mxPoint x="200" y="2550" as="targetPoint" />
          </mxGeometry>
        </mxCell>
        <mxCell id="dhVAYogz4fCFv6d9xKXi-232" value="" style="endArrow=none;html=1;rounded=0;" edge="1" parent="1">
          <mxGeometry width="50" height="50" relative="1" as="geometry">
            <mxPoint y="2640" as="sourcePoint" />
            <mxPoint x="810" y="2640" as="targetPoint" />
          </mxGeometry>
        </mxCell>
        <mxCell id="dhVAYogz4fCFv6d9xKXi-233" value="" style="endArrow=none;html=1;rounded=0;" edge="1" parent="1">
          <mxGeometry width="50" height="50" relative="1" as="geometry">
            <mxPoint y="2340" as="sourcePoint" />
            <mxPoint x="820" y="2340" as="targetPoint" />
          </mxGeometry>
        </mxCell>
        <mxCell id="dhVAYogz4fCFv6d9xKXi-234" value="" style="shape=umlLifeline;perimeter=lifelinePerimeter;whiteSpace=wrap;html=1;container=1;dropTarget=0;collapsible=0;recursiveResize=0;outlineConnect=0;portConstraint=eastwest;newEdgeStyle={&quot;edgeStyle&quot;:&quot;elbowEdgeStyle&quot;,&quot;elbow&quot;:&quot;vertical&quot;,&quot;curved&quot;:0,&quot;rounded&quot;:0};participant=umlActor;" vertex="1" parent="1">
          <mxGeometry x="90" y="2690" width="20" height="400" as="geometry" />
        </mxCell>
        <mxCell id="dhVAYogz4fCFv6d9xKXi-257" value="" style="html=1;points=[];perimeter=orthogonalPerimeter;outlineConnect=0;targetShapes=umlLifeline;portConstraint=eastwest;newEdgeStyle={&quot;edgeStyle&quot;:&quot;elbowEdgeStyle&quot;,&quot;elbow&quot;:&quot;vertical&quot;,&quot;curved&quot;:0,&quot;rounded&quot;:0};" vertex="1" parent="dhVAYogz4fCFv6d9xKXi-234">
          <mxGeometry x="5" y="160" width="10" height="60" as="geometry" />
        </mxCell>
        <mxCell id="dhVAYogz4fCFv6d9xKXi-235" value="Acheter article" style="rounded=0;whiteSpace=wrap;html=1;" vertex="1" parent="1">
          <mxGeometry x="40" y="2650" width="120" height="30" as="geometry" />
        </mxCell>
        <mxCell id="dhVAYogz4fCFv6d9xKXi-236" value="Application" style="shape=umlLifeline;perimeter=lifelinePerimeter;whiteSpace=wrap;html=1;container=1;dropTarget=0;collapsible=0;recursiveResize=0;outlineConnect=0;portConstraint=eastwest;newEdgeStyle={&quot;edgeStyle&quot;:&quot;elbowEdgeStyle&quot;,&quot;elbow&quot;:&quot;vertical&quot;,&quot;curved&quot;:0,&quot;rounded&quot;:0};" vertex="1" parent="1">
          <mxGeometry x="240" y="2690" width="100" height="400" as="geometry" />
        </mxCell>
        <mxCell id="dhVAYogz4fCFv6d9xKXi-253" value="" style="html=1;points=[];perimeter=orthogonalPerimeter;outlineConnect=0;targetShapes=umlLifeline;portConstraint=eastwest;newEdgeStyle={&quot;edgeStyle&quot;:&quot;elbowEdgeStyle&quot;,&quot;elbow&quot;:&quot;vertical&quot;,&quot;curved&quot;:0,&quot;rounded&quot;:0};" vertex="1" parent="dhVAYogz4fCFv6d9xKXi-236">
          <mxGeometry x="45" y="130" width="10" height="50" as="geometry" />
        </mxCell>
        <mxCell id="dhVAYogz4fCFv6d9xKXi-260" value="" style="html=1;points=[];perimeter=orthogonalPerimeter;outlineConnect=0;targetShapes=umlLifeline;portConstraint=eastwest;newEdgeStyle={&quot;edgeStyle&quot;:&quot;elbowEdgeStyle&quot;,&quot;elbow&quot;:&quot;vertical&quot;,&quot;curved&quot;:0,&quot;rounded&quot;:0};" vertex="1" parent="dhVAYogz4fCFv6d9xKXi-236">
          <mxGeometry x="45" y="210" width="10" height="160" as="geometry" />
        </mxCell>
        <mxCell id="dhVAYogz4fCFv6d9xKXi-238" value=":Table_Article" style="shape=umlLifeline;perimeter=lifelinePerimeter;whiteSpace=wrap;html=1;container=1;dropTarget=0;collapsible=0;recursiveResize=0;outlineConnect=0;portConstraint=eastwest;newEdgeStyle={&quot;edgeStyle&quot;:&quot;elbowEdgeStyle&quot;,&quot;elbow&quot;:&quot;vertical&quot;,&quot;curved&quot;:0,&quot;rounded&quot;:0};" vertex="1" parent="1">
          <mxGeometry x="440" y="2690" width="100" height="400" as="geometry" />
        </mxCell>
        <mxCell id="dhVAYogz4fCFv6d9xKXi-239" value="End" style="ellipse;whiteSpace=wrap;html=1;aspect=fixed;" vertex="1" parent="1">
          <mxGeometry x="80" y="3090" width="40" height="40" as="geometry" />
        </mxCell>
        <mxCell id="dhVAYogz4fCFv6d9xKXi-240" value="End" style="ellipse;whiteSpace=wrap;html=1;aspect=fixed;" vertex="1" parent="1">
          <mxGeometry x="270" y="3090" width="40" height="40" as="geometry" />
        </mxCell>
        <mxCell id="dhVAYogz4fCFv6d9xKXi-241" value="End" style="ellipse;whiteSpace=wrap;html=1;aspect=fixed;" vertex="1" parent="1">
          <mxGeometry x="470" y="3090" width="40" height="40" as="geometry" />
        </mxCell>
        <mxCell id="dhVAYogz4fCFv6d9xKXi-249" value="Connection" style="html=1;verticalAlign=bottom;endArrow=block;edgeStyle=elbowEdgeStyle;elbow=vertical;curved=0;rounded=0;" edge="1" parent="1" target="dhVAYogz4fCFv6d9xKXi-236">
          <mxGeometry width="80" relative="1" as="geometry">
            <mxPoint x="100" y="2760" as="sourcePoint" />
            <mxPoint x="180" y="2760" as="targetPoint" />
          </mxGeometry>
        </mxCell>
        <mxCell id="dhVAYogz4fCFv6d9xKXi-250" value="Sélectionner article" style="html=1;verticalAlign=bottom;endArrow=block;edgeStyle=elbowEdgeStyle;elbow=vertical;curved=0;rounded=0;" edge="1" parent="1" target="dhVAYogz4fCFv6d9xKXi-236">
          <mxGeometry width="80" relative="1" as="geometry">
            <mxPoint x="100" y="2800" as="sourcePoint" />
            <mxPoint x="180" y="2800" as="targetPoint" />
          </mxGeometry>
        </mxCell>
        <mxCell id="dhVAYogz4fCFv6d9xKXi-251" value="Appuyer sur acheter" style="html=1;verticalAlign=bottom;endArrow=block;edgeStyle=elbowEdgeStyle;elbow=vertical;curved=0;rounded=0;" edge="1" parent="1" target="dhVAYogz4fCFv6d9xKXi-236">
          <mxGeometry width="80" relative="1" as="geometry">
            <mxPoint x="100" y="2830" as="sourcePoint" />
            <mxPoint x="180" y="2830" as="targetPoint" />
          </mxGeometry>
        </mxCell>
        <mxCell id="dhVAYogz4fCFv6d9xKXi-252" value="Demande information du client" style="html=1;verticalAlign=bottom;endArrow=open;dashed=1;endSize=8;edgeStyle=elbowEdgeStyle;elbow=vertical;curved=0;rounded=0;" edge="1" parent="1" target="dhVAYogz4fCFv6d9xKXi-234">
          <mxGeometry relative="1" as="geometry">
            <mxPoint x="290" y="2860" as="sourcePoint" />
            <mxPoint x="210" y="2860" as="targetPoint" />
          </mxGeometry>
        </mxCell>
        <mxCell id="dhVAYogz4fCFv6d9xKXi-254" value="Envoie les informations pour&lt;br&gt;l&#39;achat" style="html=1;verticalAlign=bottom;endArrow=block;edgeStyle=elbowEdgeStyle;elbow=vertical;curved=0;rounded=0;" edge="1" parent="1" target="dhVAYogz4fCFv6d9xKXi-236">
          <mxGeometry width="80" relative="1" as="geometry">
            <mxPoint x="100" y="2900" as="sourcePoint" />
            <mxPoint x="180" y="2900" as="targetPoint" />
          </mxGeometry>
        </mxCell>
        <mxCell id="dhVAYogz4fCFv6d9xKXi-258" value="Si information bonne" style="shape=umlFrame;whiteSpace=wrap;html=1;pointerEvents=0;" vertex="1" parent="1">
          <mxGeometry x="10" y="2920" width="600" height="70" as="geometry" />
        </mxCell>
        <mxCell id="dhVAYogz4fCFv6d9xKXi-259" value="Sinon" style="shape=umlFrame;whiteSpace=wrap;html=1;pointerEvents=0;" vertex="1" parent="1">
          <mxGeometry x="10" y="2990" width="600" height="70" as="geometry" />
        </mxCell>
        <mxCell id="dhVAYogz4fCFv6d9xKXi-261" value="Supprimer l&#39;article" style="html=1;verticalAlign=bottom;endArrow=block;edgeStyle=elbowEdgeStyle;elbow=vertical;curved=0;rounded=0;" edge="1" parent="1" target="dhVAYogz4fCFv6d9xKXi-238">
          <mxGeometry x="0.0035" width="80" relative="1" as="geometry">
            <mxPoint x="290" y="2940" as="sourcePoint" />
            <mxPoint x="370" y="2940" as="targetPoint" />
            <mxPoint as="offset" />
          </mxGeometry>
        </mxCell>
        <mxCell id="dhVAYogz4fCFv6d9xKXi-262" value="Transfère l&#39;article au client" style="html=1;verticalAlign=bottom;endArrow=open;dashed=1;endSize=8;edgeStyle=elbowEdgeStyle;elbow=vertical;curved=0;rounded=0;" edge="1" parent="1" target="dhVAYogz4fCFv6d9xKXi-234">
          <mxGeometry relative="1" as="geometry">
            <mxPoint x="290" y="2960" as="sourcePoint" />
            <mxPoint x="210" y="2960" as="targetPoint" />
          </mxGeometry>
        </mxCell>
        <mxCell id="dhVAYogz4fCFv6d9xKXi-263" value="Dit au client que les informations&lt;br&gt;entrée ne sont pas bonne&amp;nbsp;" style="html=1;verticalAlign=bottom;endArrow=open;dashed=1;endSize=8;edgeStyle=elbowEdgeStyle;elbow=vertical;curved=0;rounded=0;" edge="1" parent="1" target="dhVAYogz4fCFv6d9xKXi-234">
          <mxGeometry relative="1" as="geometry">
            <mxPoint x="290" y="3020" as="sourcePoint" />
            <mxPoint x="210" y="3020" as="targetPoint" />
          </mxGeometry>
        </mxCell>
      </root>
    </mxGraphModel>
  </diagram>
</mxfile>
